<svg xmlns="http://www.w3.org/2000/svg" width="289" height="284" viewBox="0 0 289 284" fill="none"><path d="M281.818 98.9472C271.012 65.6217 248.29 37.4554 218.003 19.8459C197.839 8.17021 175.195 1.43858 151.928 0.20285C128.66 -1.03288 105.431 3.2626 84.1436 12.7368C82.9638 13.2497 81.9217 14.034 81.1024 15.0259C80.2832 16.0177 79.71 17.1892 79.4293 18.4446C79.1486 19.7001 79.1685 21.0039 79.4873 22.2503C79.8061 23.4966 80.4147 24.6501 81.2638 25.6165C82.4689 26.9939 84.0844 27.9483 85.8724 28.3391C87.6604 28.7299 89.5264 28.5364 91.1964 27.7874C110.155 19.3627 130.852 15.591 151.564 16.7866C172.275 17.9821 192.401 24.1102 210.264 34.6603C235.894 50.4077 255.134 74.7053 264.587 103.262C274.041 131.818 273.1 162.796 261.93 190.726C253.319 212.376 238.234 230.841 218.735 243.595L218.487 243.752C196.294 259.124 169.838 267.146 142.845 266.688C115.852 266.23 89.6826 257.315 68.024 241.199C48.3192 226.524 33.3707 206.373 25.0431 183.258C16.7155 160.144 15.3774 135.09 21.1956 111.22L39.5534 120.736C40.9384 121.765 42.5937 122.367 44.3161 122.469C46.0385 122.571 47.7531 122.168 49.2498 121.309C50.7323 120.463 51.9302 119.196 52.6912 117.668C53.4522 116.14 53.7422 114.42 53.5244 112.727L48.8224 54.9532C48.5876 53.2812 47.8679 51.7144 46.7524 50.447C45.6369 49.1795 44.1745 48.2668 42.5458 47.8215C40.9216 47.3631 39.2003 47.3779 37.5843 47.8641C35.9683 48.3503 34.5246 49.2876 33.423 50.5661L32.0842 52.0961C31.2293 53.0522 30.2507 54.1769 29.3283 55.3693C17.8602 70.2425 9.48023 87.258 4.68018 105.415C-0.119876 123.573 -1.24305 142.506 1.37675 161.104C3.99656 179.701 10.3064 197.587 19.9357 213.712C29.5651 229.837 42.3196 243.874 57.4502 255.001C82.6881 273.836 113.339 284.008 144.83 284C151.07 283.999 157.302 283.605 163.492 282.819C164.741 282.729 166.766 282.369 170.309 281.694C173.852 281.019 178.386 280.209 181.558 279.377C198.414 275.053 214.366 267.762 228.667 257.847C249.74 243.381 266.288 223.246 276.396 199.77C290.73 168.019 292.664 132.053 281.818 98.9472Z" fill="#0A50F0"></path><path d="M144.369 201.209C177.693 201.209 204.708 174.683 204.708 141.962C204.708 109.241 177.693 82.7151 144.369 82.7151C111.046 82.7151 84.0312 109.241 84.0312 141.962C84.0312 174.683 111.046 201.209 144.369 201.209Z" fill="#0A50F0"></path></svg>