<svg xmlns="http://www.w3.org/2000/svg" width="141.064" height="25.242" viewBox="0 0 141.064 25.242"><defs><style>      .cls-1 {        fill: #fff;      }    </style></defs><g id="Group_39920" data-name="Group 39920" transform="translate(-449.117 -505.408)"><g id="Group_133" data-name="Group 133" transform="translate(449.117 505.408)"><g id="Group_131" data-name="Group 131" transform="translate(0 0)"><path id="Path_235" data-name="Path 235" class="cls-1" d="M474.169,514.2a12.646,12.646,0,0,0-5.673-7.032,13.11,13.11,0,0,0-11.9-.632.726.726,0,0,0-.256,1.145.76.76,0,0,0,.883.193,11.573,11.573,0,0,1,10.585.611,11.341,11.341,0,0,1,4.593,13.874,10.057,10.057,0,0,1-3.84,4.7l-.022.014a11.468,11.468,0,0,1-13.376-.227A11.123,11.123,0,0,1,451,515.291l1.632.846a.788.788,0,0,0,.862.051.766.766,0,0,0,.38-.763l-.418-5.136a.768.768,0,0,0-.558-.634.788.788,0,0,0-.811.244l-.119.136c-.076.085-.163.185-.245.291a12.531,12.531,0,0,0,2.5,17.747,12.982,12.982,0,0,0,7.768,2.578,13.19,13.19,0,0,0,1.659-.105v0c.111-.008.291-.04.606-.1s.718-.132,1-.206a13.033,13.033,0,0,0,4.188-1.914,12.035,12.035,0,0,0,4.243-5.163A12.4,12.4,0,0,0,474.169,514.2Z" transform="translate(-449.117 -505.408)"></path></g><g id="Group_132" data-name="Group 132" transform="translate(7.469 7.349)"><ellipse id="Ellipse_17" data-name="Ellipse 17" class="cls-1" cx="5.364" cy="5.267" rx="5.364" ry="5.267"></ellipse></g></g><g id="Group_134" data-name="Group 134" transform="translate(480.877 507.325)"><path id="Path_236" data-name="Path 236" class="cls-1" d="M568.509,534.335a6.3,6.3,0,0,1,.491-2.479,6.155,6.155,0,0,1,1.354-2.012,6.4,6.4,0,0,1,2.024-1.341,6.336,6.336,0,1,1,0,11.69,6.387,6.387,0,0,1-2.024-1.342A6.144,6.144,0,0,1,569,536.838,6.359,6.359,0,0,1,568.509,534.335Zm6.348,4.24a3.723,3.723,0,0,0,2.814-1.234,4.454,4.454,0,0,0,0-6,3.74,3.74,0,0,0-2.814-1.222,3.779,3.779,0,0,0-2.827,1.222,4.158,4.158,0,0,0-1.174,2.994,4.22,4.22,0,0,0,1.162,3.006A3.749,3.749,0,0,0,574.857,538.575Z" transform="translate(-568.509 -523.915)"></path><path id="Path_237" data-name="Path 237" class="cls-1" d="M626.914,528.912v7.234a3.1,3.1,0,0,0,.826,2.276,2.938,2.938,0,0,0,2.192.839,3.462,3.462,0,0,0,2.994-1.6v-8.743h2.4V541.1h-2.4v-1.222a4.877,4.877,0,0,1-1.641,1.09,5.376,5.376,0,0,1-2.024.371A4.6,4.6,0,0,1,625.849,540a4.691,4.691,0,0,1-1.33-3.449v-7.641Z" transform="translate(-609.619 -524.576)"></path><path id="Path_238" data-name="Path 238" class="cls-1" d="M675.756,540.377V528.185h2.4v1.557a3.759,3.759,0,0,1,1.413-1.353,4.005,4.005,0,0,1,1.94-.467,4.17,4.17,0,0,1,.671.048,3.123,3.123,0,0,1,.551.144v2.156a4.973,4.973,0,0,0-.695-.191,3.657,3.657,0,0,0-.719-.072,3.264,3.264,0,0,0-1.88.563,3.611,3.611,0,0,0-1.281,1.665v8.145Z" transform="translate(-647.227 -523.849)"></path><path id="Path_239" data-name="Path 239" class="cls-1" d="M704.3,534.335a6.3,6.3,0,0,1,.491-2.479,6.162,6.162,0,0,1,1.354-2.012,6.4,6.4,0,0,1,2.024-1.341,6.336,6.336,0,1,1,0,11.69,6.387,6.387,0,0,1-2.024-1.342,6.152,6.152,0,0,1-1.354-2.012A6.359,6.359,0,0,1,704.3,534.335Zm6.348,4.24a3.723,3.723,0,0,0,2.815-1.234,4.454,4.454,0,0,0,0-6,3.867,3.867,0,0,0-5.641,0,4.157,4.157,0,0,0-1.174,2.994,4.221,4.221,0,0,0,1.162,3.006A3.749,3.749,0,0,0,710.649,538.575Z" transform="translate(-668.178 -523.915)"></path><path id="Path_240" data-name="Path 240" class="cls-1" d="M758.919,541.1l-5.27-12.193h2.635l3.809,9.126,3.809-9.126h2.563l-5.27,12.193Z" transform="translate(-704.399 -524.576)"></path><path id="Path_241" data-name="Path 241" class="cls-1" d="M803.536,523.033a6.3,6.3,0,0,1,.491-2.479,6.158,6.158,0,0,1,1.353-2.012A6.405,6.405,0,0,1,807.4,517.2a6.308,6.308,0,0,1,8.8,5.833,6.37,6.37,0,0,1-.491,2.5,6.383,6.383,0,0,1-8.312,3.354,6.391,6.391,0,0,1-2.024-1.342,6.147,6.147,0,0,1-1.353-2.012A6.36,6.36,0,0,1,803.536,523.033Zm6.348,4.24a3.724,3.724,0,0,0,2.815-1.234,4.455,4.455,0,0,0,0-6,3.867,3.867,0,0,0-5.641,0,4.158,4.158,0,0,0-1.174,2.994,4.222,4.222,0,0,0,1.162,3.006A3.749,3.749,0,0,0,809.884,527.273Zm3.665-14.66v1.629h-7.139v-1.629Z" transform="translate(-741.015 -512.613)"></path><path id="Path_242" data-name="Path 242" class="cls-1" d="M859.726,540.377V528.185h2.4v1.557a3.76,3.76,0,0,1,1.413-1.353,4.005,4.005,0,0,1,1.94-.467,4.163,4.163,0,0,1,.671.048,3.132,3.132,0,0,1,.551.144v2.156a4.976,4.976,0,0,0-.695-.191,3.655,3.655,0,0,0-.719-.072,3.263,3.263,0,0,0-1.88.563,3.611,3.611,0,0,0-1.282,1.665v8.145Z" transform="translate(-782.258 -523.849)"></path><path id="Path_243" data-name="Path 243" class="cls-1" d="M888.271,534.335a6.3,6.3,0,0,1,.491-2.479,6.163,6.163,0,0,1,1.354-2.012,6.4,6.4,0,0,1,2.024-1.341,6.336,6.336,0,1,1,0,11.69,6.387,6.387,0,0,1-2.024-1.342,6.152,6.152,0,0,1-1.354-2.012A6.36,6.36,0,0,1,888.271,534.335Zm6.348,4.24a3.723,3.723,0,0,0,2.815-1.234,4.454,4.454,0,0,0,0-6,3.867,3.867,0,0,0-5.641,0,4.158,4.158,0,0,0-1.174,2.994,4.221,4.221,0,0,0,1.162,3.006A3.748,3.748,0,0,0,894.619,538.575Z" transform="translate(-803.209 -523.915)"></path><path id="Path_244" data-name="Path 244" class="cls-1" d="M940.14,538.994l1.294-1.581a8.044,8.044,0,0,0,1.952,1.138,5.437,5.437,0,0,0,2.024.4,3.961,3.961,0,0,0,2.108-.5,1.5,1.5,0,0,0,.815-1.317,1.251,1.251,0,0,0-.479-1.03,3.092,3.092,0,0,0-1.485-.527l-2.2-.311a4.993,4.993,0,0,1-2.719-1.114,2.93,2.93,0,0,1-.922-2.264,3.216,3.216,0,0,1,1.317-2.671,5.486,5.486,0,0,1,3.449-1.018,8.4,8.4,0,0,1,2.551.383,8.925,8.925,0,0,1,2.36,1.174l-1.222,1.581a7.805,7.805,0,0,0-1.952-.97,6.285,6.285,0,0,0-1.9-.3,3.1,3.1,0,0,0-1.773.455,1.388,1.388,0,0,0-.671,1.2,1.19,1.19,0,0,0,.467,1.018,3.6,3.6,0,0,0,1.545.515l2.2.311a5.082,5.082,0,0,1,2.743,1.126,2.932,2.932,0,0,1,.946,2.276,3.063,3.063,0,0,1-.4,1.521,3.793,3.793,0,0,1-1.078,1.21,5.569,5.569,0,0,1-1.617.8,6.568,6.568,0,0,1-2.012.3,9.376,9.376,0,0,1-2.958-.455A6.757,6.757,0,0,1,940.14,538.994Z" transform="translate(-841.281 -524.047)"></path></g></g></svg>